<svg width="680" height="980" viewBox="0 0 680 980" xmlns="http://www.w3.org/2000/svg" font-family="Arial, sans-serif">
<defs>
  <marker id="arrow" viewBox="0 0 10 10" refX="8" refY="5" markerWidth="6" markerHeight="6" orient="auto-start-reverse">
    <path d="M2 1L8 5L2 9" fill="none" stroke="#555" stroke-width="1.5" stroke-linecap="round" stroke-linejoin="round"/>
  </marker>
  <marker id="arr-green" viewBox="0 0 10 10" refX="8" refY="5" markerWidth="6" markerHeight="6" orient="auto-start-reverse">
    <path d="M2 1L8 5L2 9" fill="none" stroke="#0F6E56" stroke-width="1.5" stroke-linecap="round" stroke-linejoin="round"/>
  </marker>
  <marker id="arr-red" viewBox="0 0 10 10" refX="8" refY="5" markerWidth="6" markerHeight="6" orient="auto-start-reverse">
    <path d="M2 1L8 5L2 9" fill="none" stroke="#A32D2D" stroke-width="1.5" stroke-linecap="round" stroke-linejoin="round"/>
  </marker>
  <marker id="arr-gray" viewBox="0 0 10 10" refX="8" refY="5" markerWidth="6" markerHeight="6" orient="auto-start-reverse">
    <path d="M2 1L8 5L2 9" fill="none" stroke="#888" stroke-width="1.5" stroke-linecap="round" stroke-linejoin="round"/>
  </marker>
</defs>

<rect width="680" height="980" fill="white"/>
<text x="340" y="18" text-anchor="middle" font-size="12" font-weight="bold" fill="#333">Fluxograma Wokwi — diagram.json e main.py</text>

<!-- CABECALHO DOS DOIS LADOS -->
<rect x="40" y="28" width="240" height="44" rx="22" fill="#F1EFE8" stroke="#5F5E5A" stroke-width="1"/>
<text x="160" y="55" text-anchor="middle" font-size="14" font-weight="bold" fill="#2C2C2A">diagram.json</text>

<rect x="400" y="28" width="240" height="44" rx="22" fill="#E1F5EE" stroke="#0F6E56" stroke-width="1"/>
<text x="520" y="55" text-anchor="middle" font-size="14" font-weight="bold" fill="#085041">main.py</text>

<line x1="160" y1="72" x2="160" y2="108" stroke="#555" stroke-width="1" marker-end="url(#arrow)"/>
<line x1="520" y1="72" x2="520" y2="108" stroke="#555" stroke-width="1" marker-end="url(#arrow)"/>

<!-- LINHA 1 -->
<rect x="40" y="108" width="240" height="56" rx="8" fill="#F1EFE8" stroke="#888780" stroke-width="0.8"/>
<text x="160" y="128" text-anchor="middle" font-size="13" font-weight="bold" fill="#2C2C2A">Wokwi lê o circuito</text>
<text x="160" y="148" text-anchor="middle" font-size="12" fill="#5F5E5A">Pico, DS18B20, resistor</text>

<rect x="400" y="108" width="240" height="56" rx="8" fill="#E1F5EE" stroke="#0F6E56" stroke-width="0.8"/>
<text x="520" y="128" text-anchor="middle" font-size="13" font-weight="bold" fill="#085041">Exibir cabeçalho</text>
<text x="520" y="148" text-anchor="middle" font-size="12" fill="#0F6E56">Título no terminal</text>

<line x1="160" y1="164" x2="160" y2="200" stroke="#555" stroke-width="1" marker-end="url(#arrow)"/>
<line x1="520" y1="164" x2="520" y2="200" stroke="#555" stroke-width="1" marker-end="url(#arrow)"/>

<!-- LINHA 2 -->
<rect x="40" y="200" width="240" height="56" rx="8" fill="#F1EFE8" stroke="#888780" stroke-width="0.8"/>
<text x="160" y="220" text-anchor="middle" font-size="13" font-weight="bold" fill="#2C2C2A">Conectar os pinos</text>
<text x="160" y="240" text-anchor="middle" font-size="12" fill="#5F5E5A">VCC, GND, GP22</text>

<rect x="400" y="200" width="240" height="56" rx="8" fill="#E1F5EE" stroke="#0F6E56" stroke-width="0.8"/>
<text x="520" y="220" text-anchor="middle" font-size="13" font-weight="bold" fill="#085041">Configurar GP22</text>
<text x="520" y="240" text-anchor="middle" font-size="12" fill="#0F6E56">Protocolo 1-Wire</text>

<line x1="160" y1="256" x2="160" y2="292" stroke="#555" stroke-width="1" marker-end="url(#arrow)"/>
<line x1="520" y1="256" x2="520" y2="292" stroke="#555" stroke-width="1" marker-end="url(#arrow)"/>

<!-- LINHA 3 -->
<rect x="40" y="292" width="240" height="56" rx="8" fill="#F1EFE8" stroke="#888780" stroke-width="0.8"/>
<text x="160" y="312" text-anchor="middle" font-size="13" font-weight="bold" fill="#2C2C2A">Resistor pull-up ativo</text>
<text x="160" y="332" text-anchor="middle" font-size="12" fill="#5F5E5A">4.7 kΩ entre VCC e DATA</text>

<rect x="400" y="292" width="240" height="56" rx="8" fill="#E1F5EE" stroke="#0F6E56" stroke-width="0.8"/>
<text x="520" y="312" text-anchor="middle" font-size="13" font-weight="bold" fill="#085041">Buscar sensores</text>
<text x="520" y="332" text-anchor="middle" font-size="12" fill="#0F6E56">sensor.scan()</text>

<line x1="160" y1="348" x2="160" y2="428" stroke="#555" stroke-width="1" marker-end="url(#arrow)"/>
<line x1="520" y1="348" x2="520" y2="384" stroke="#555" stroke-width="1" marker-end="url(#arrow)"/>

<!-- DECISAO -->
<rect x="390" y="384" width="260" height="44" rx="8" fill="#FAEEDA" stroke="#BA7517" stroke-width="0.8"/>
<text x="520" y="393" text-anchor="middle" font-size="13" font-weight="bold" fill="#633806">Sensores encontrados?</text>

<line x1="390" y1="406" x2="312" y2="406" stroke="#A32D2D" stroke-width="1" marker-end="url(#arr-red)"/>
<text x="351" y="398" text-anchor="middle" font-size="12" fill="#A32D2D">Não</text>
<rect x="210" y="384" width="102" height="44" rx="8" fill="#FCEBEB" stroke="#A32D2D" stroke-width="0.8"/>
<text x="261" y="400" text-anchor="middle" font-size="13" font-weight="bold" fill="#501313">Exibir erro</text>
<text x="261" y="418" text-anchor="middle" font-size="12" fill="#791F1F">e encerrar</text>

<line x1="520" y1="428" x2="520" y2="464" stroke="#0F6E56" stroke-width="1" marker-end="url(#arr-green)"/>
<text x="534" y="450" font-size="12" fill="#0F6E56">Sim</text>

<!-- LINHA 4 -->
<rect x="40" y="428" width="240" height="56" rx="8" fill="#F1EFE8" stroke="#888780" stroke-width="0.8"/>
<text x="160" y="448" text-anchor="middle" font-size="13" font-weight="bold" fill="#2C2C2A">Circuito pronto</text>
<text x="160" y="468" text-anchor="middle" font-size="12" fill="#5F5E5A">Hardware simulado</text>

<rect x="400" y="464" width="240" height="56" rx="8" fill="#E1F5EE" stroke="#0F6E56" stroke-width="0.8"/>
<text x="520" y="484" text-anchor="middle" font-size="13" font-weight="bold" fill="#085041">Solicitar conversão</text>
<text x="520" y="504" text-anchor="middle" font-size="12" fill="#0F6E56">convert_temp()</text>

<path d="M 160 484 L 160 556 L 400 556" fill="none" stroke="#888" stroke-width="0.8" stroke-dasharray="4 3" marker-end="url(#arr-gray)"/>
<text x="270" y="548" text-anchor="middle" font-size="11" fill="#888">comunica via GP22</text>

<line x1="520" y1="520" x2="520" y2="556" stroke="#555" stroke-width="1" marker-end="url(#arrow)"/>

<!-- LINHA 5 -->
<rect x="400" y="556" width="240" height="56" rx="8" fill="#E1F5EE" stroke="#0F6E56" stroke-width="0.8"/>
<text x="520" y="576" text-anchor="middle" font-size="13" font-weight="bold" fill="#085041">Aguardar 750 ms</text>
<text x="520" y="596" text-anchor="middle" font-size="12" fill="#0F6E56">Tempo de conversão</text>

<line x1="520" y1="612" x2="520" y2="648" stroke="#555" stroke-width="1" marker-end="url(#arrow)"/>

<rect x="400" y="648" width="240" height="56" rx="8" fill="#E1F5EE" stroke="#0F6E56" stroke-width="0.8"/>
<text x="520" y="668" text-anchor="middle" font-size="13" font-weight="bold" fill="#085041">Ler temperatura</text>
<text x="520" y="688" text-anchor="middle" font-size="12" fill="#0F6E56">read_temp() → °C</text>

<line x1="520" y1="704" x2="520" y2="740" stroke="#555" stroke-width="1" marker-end="url(#arrow)"/>

<rect x="400" y="740" width="240" height="56" rx="8" fill="#E1F5EE" stroke="#0F6E56" stroke-width="0.8"/>
<text x="520" y="760" text-anchor="middle" font-size="13" font-weight="bold" fill="#085041">Classificar temperatura</text>
<text x="520" y="780" text-anchor="middle" font-size="12" fill="#0F6E56">Frio / Quente / etc.</text>

<line x1="520" y1="796" x2="520" y2="832" stroke="#555" stroke-width="1" marker-end="url(#arrow)"/>

<rect x="400" y="832" width="240" height="56" rx="8" fill="#E1F5EE" stroke="#0F6E56" stroke-width="0.8"/>
<text x="520" y="852" text-anchor="middle" font-size="13" font-weight="bold" fill="#085041">Exibir no terminal</text>
<text x="520" y="872" text-anchor="middle" font-size="12" fill="#0F6E56">Leitura, temp, condição</text>

<line x1="520" y1="888" x2="520" y2="924" stroke="#555" stroke-width="1" marker-end="url(#arrow)"/>

<rect x="400" y="924" width="240" height="44" rx="8" fill="#F1EFE8" stroke="#888780" stroke-width="0.8"/>
<text x="520" y="950" text-anchor="middle" font-size="13" font-weight="bold" fill="#2C2C2A">Aguardar 2 segundos</text>

<path d="M 380 946 L 350 946 L 350 584 L 400 584" fill="none" stroke="#888" stroke-width="0.8" stroke-dasharray="5 3" marker-end="url(#arr-gray)"/>
<text x="344" y="770" text-anchor="middle" font-size="11" fill="#888" transform="rotate(-90,344,770)">repetir sempre</text>

</svg>
